<?xml version="1.0" encoding="UTF-8"?>
<svg id="Calque_2" data-name="Calque 2" xmlns="http://www.w3.org/2000/svg" viewBox="0 0 123.72 123.72">
  <defs>
    <style>
      .cls-1 {
        fill: #fff;
      }

      .cls-2 {
        fill: #f2c4c6;
      }
    </style>
  </defs>
  <g id="Calque_3" data-name="Calque 3">
    <g>
      <rect class="cls-2" width="123.72" height="123.72" rx="10" ry="10"/>
      <g>
        <path class="cls-1" d="M37.87,42.28c.35.43.39.79.41,1.39l.48-3.09h-3.04c-.13-.01-.22.12-.16.24l.12.29c.07.15.2.26.37.29.49.08.99.31,1.29.47.2.1.38.24.52.42Z"/>
        <path class="cls-1" d="M90.57,89.85s-.08.01-.11.04c-.01,0-.03.02-.04.03-.83,1.13-2.16,2.03-3.33,2.64-1.32.69-2.82,1.25-4.52,1.66-1.69.41-3.72.62-6.07.62-3.01,0-6.03-.98-8.12-2.46-2.09-1.49-4.14-3.76-5.22-6.36-1.07-2.59-1.84-5.77-1.84-9.06s.27-6.12,1.27-8.75c1-2.63,3.36-5.52,5.45-6.9,2.34-1.55,5-2.26,8.04-2.26,3.29,0,5.62.25,8.25,1.11,2.21.73,3.94,1.47,4.63,3.75,0,.01,0,.03.01.04.02.06.07.1.13.12h.04s0,0,.01,0l.15.03s.04,0,.06,0c.11,0,.19-.08.2-.18v-2.32c0-.07-.04-.14-.09-.17,0,0-.02-.01-.04-.02-.66-.36-1.65-.77-2.96-1.23-1.4-.48-3.01-.92-4.83-1.3-1.82-.38-3.68-.57-5.58-.57-1.3,0-2.53.1-3.7.29-.02,0-.04.01-.06.01h0c-.09,0-.17-.06-.19-.15h0s0-.06,0-.06c0,0,0,0,0,0l-1.94-17.51h-3.83l-11.9,26.16s-.01.04-.03.06h0c-.04.05-.1.09-.17.09-.08,0-.15-.05-.18-.12l-11.71-26.54h-3.98s-1.76,28.72-1.76,28.72c0,.08-.77,7.64,6.21,9.07.68.14,1.31.2,1.9.2,4.32,0,6.6-3.29,7.41-4.77.08-.15.15-.28.2-.39,0,0,0,0,0-.01.05-.11.09-.19.11-.24.01-.03.02-.05.03-.06,0,0,0,0,0,0l2.14-4.71,11.82-26s0-.03.02-.04c0,0,0,0,0-.01.04-.05.1-.09.16-.09.11,0,.2.09.2.2l1.3,17.29h0s0,.05,0,.05c0,0,0,0,0,0,0,.06-.04.11-.08.15h0s-.03.02-.05.02c-.58.27-1.14.57-1.68.9-2.7,1.68-4.77,3.92-6.2,6.72-1.44,2.8-2.15,5.93-2.15,9.39,0,2.59.43,5.03,1.3,7.29.86,2.27,2.1,4.25,3.71,5.94,1.61,1.69,3.56,3.03,5.84,4,2.28.97,4.84,1.45,7.68,1.45,3.35,0,6.15-.43,8.38-1.3,2.19-.85,4.11-1.89,5.78-3.14,0,0,0,0,0,0,.01,0,.03-.02.04-.03,0,0,0,0,0,0,.04-.04.06-.09.06-.15v-.97c0-.11-.09-.21-.21-.21ZM51.78,72.98s-.02.05-.03.07c-.52,1.15-3.04,5.8-8.76,4.62-6.35-1.3-5.69-8.02-5.65-8.32l1.62-26.44v-.05c.02-.09.1-.16.2-.16.07,0,.14.04.17.11,0,.01.01.03.02.04l12.43,30.01s0,0,0,0c0,0,0,0,0,0,.01.04.01.08,0,.11Z"/>
        <g>
          <path class="cls-1" d="M24.47,107.07v-55.13s-.06-33.6,37.4-33.68c37.46.08,37.4,33.68,37.4,33.68v54.49l.94.28v-55.07s1.4-36-38.19-36.17c-.05,0-.09,0-.14,0s-.09,0-.14,0c-39.59.17-38.19,36.17-38.19,36.17v54.81l.94.63Z"/>
          <g>
            <path class="cls-1" d="M100.8,105.7c-.52-.63-.58-1.18-.61-2.08l-.72,4.62h4.53c.19.02.32-.18.25-.36l-.18-.43c-.1-.23-.3-.39-.55-.43-.73-.12-1.48-.47-1.93-.71-.3-.16-.57-.36-.78-.62Z"/>
            <path class="cls-1" d="M98.65,105.7c.52-.63.58-1.18.61-2.08l.72,4.62h-4.53c-.19.02-.32-.18-.25-.36l.18-.43c.1-.23.3-.39.55-.43.73-.12,1.48-.47,1.93-.71.3-.16.57-.36.78-.62Z"/>
          </g>
          <g>
            <path class="cls-1" d="M25.07,105.7c-.52-.63-.58-1.18-.61-2.08l-.72,4.62h4.53c.19.02.32-.18.25-.36l-.18-.43c-.1-.23-.3-.39-.55-.43-.73-.12-1.48-.47-1.93-.71-.3-.16-.57-.36-.78-.62Z"/>
            <path class="cls-1" d="M22.92,105.7c.52-.63.58-1.18.61-2.08l.72,4.62h-4.53c-.19.02-.32-.18-.25-.36l.18-.43c.1-.23.3-.39.55-.43.73-.12,1.48-.47,1.93-.71.3-.16.57-.36.78-.62Z"/>
          </g>
        </g>
      </g>
    </g>
  </g>
</svg>